<svg width="16" height="16" viewBox="0 0 16 16" fill="none" xmlns="http://www.w3.org/2000/svg">
<path d="M7.99992 13.26C5.25992 10.8467 2.66659 8.22667 2.66659 5.88667C2.66659 4.47333 3.51325 3.33333 5.03325 3.33333C5.89992 3.33333 6.69325 3.92667 7.25992 4.76C7.45992 5.05333 7.65992 5.25333 7.99992 5.25333C8.33992 5.25333 8.53992 5.05333 8.73992 4.76C9.30659 3.92667 10.0999 3.33333 10.9666 3.33333C12.4866 3.33333 13.3333 4.47333 13.3333 5.88667C13.3333 8.22667 10.7399 10.8467 7.99992 13.26ZM7.99992 14.6667C8.23992 14.6667 8.46659 14.5667 8.65992 14.4067C11.7866 11.82 14.6666 8.77333 14.6666 5.88667C14.6666 3.74667 13.1599 2 10.9666 2C9.75325 2 8.67325 2.64667 8.02659 3.78H7.97325C7.32659 2.64667 6.24659 2 5.03325 2C2.83992 2 1.33325 3.74667 1.33325 5.88667C1.33325 8.77333 4.21325 11.82 7.33992 14.4067C7.53325 14.5667 7.75992 14.6667 7.99992 14.6667Z" fill="#2B2D33"/>
</svg>
